Coordinates
version=1
nRows=17
nColumns=40
inDegrees=yes

Units are S.I. units (second, meters, Newtons, ...)
If the header above contains a line with 'inDegrees', this indicates whether rotational values are in degrees (yes) or radians (no).

endheader
time	pelvis_tilt	pelvis_list	pelvis_rotation	pelvis_tx	pelvis_ty	pelvis_tz	hip_flexion_r	hip_adduction_r	hip_rotation_r	knee_angle_r	knee_angle_r_beta	ankle_angle_r	subtalar_angle_r	mtp_angle_r	hip_flexion_l	hip_adduction_l	hip_rotation_l	knee_angle_l	knee_angle_l_beta	ankle_angle_l	subtalar_angle_l	mtp_angle_l	lumbar_extension	lumbar_bending	lumbar_rotation	arm_flex_r	arm_add_r	arm_rot_r	elbow_flex_r	pro_sup_r	wrist_flex_r	wrist_dev_r	arm_flex_l	arm_add_l	arm_rot_l	elbow_flex_l	pro_sup_l	wrist_flex_l	wrist_dev_l
      1.23000000	     -0.93133734	      2.02725637	    -89.84770567	      0.24589522	      0.93294641	      0.36761409	     16.95304429	     -7.69917680	     -6.06135328	     67.14037711	      1.17182064	      3.96267750	     -0.00000000	     -0.00000000	      8.54545621	      1.51498664	      5.77798893	     10.72805698	      0.18723992	      5.34370547	      0.00000000	      0.00000000	     -4.46175794	     -0.65563403	     -4.01060310	      0.00000000	     -0.00000000	     -0.00000000	      0.00000000	      0.00000000	      0.00000000	      0.00000000	     -0.00000000	      0.00000000	     -0.00000000	      0.00000000	      0.00000000	      0.00000000	      0.00000000
      1.24000000	     -1.01229910	      2.29884687	    -89.84020435	      0.24614743	      0.93330145	      0.37539037	     18.71737651	     -7.63232501	     -6.01166306	     67.14749769	      1.17194492	      5.40128883	      0.00000000	      0.00000000	      7.86821559	      1.44963689	      6.12217627	      9.96093480	      0.17385111	      5.51560735	      0.00000000	      0.00000000	     -4.18245626	     -0.57309130	     -4.27194571	      0.00000000	      0.00000000	      0.00000000	      0.00000000	      0.00000000	      0.00000000	      0.00000000	      0.00000000	      0.00000000	      0.00000000	      0.00000000	      0.00000000	      0.00000000	      0.00000000
      1.25000000	     -1.16512421	      2.43388660	    -89.83706503	      0.24623746	      0.93374412	      0.38308048	     20.26302372	     -7.42829130	     -5.96086809	     66.79397138	      1.16577472	      5.94441906	     -0.00000000	      0.00000000	      7.13027824	      1.26996465	      6.17415619	      9.34851907	      0.16316244	      5.73202945	      0.00000000	      0.00000000	     -4.10275129	     -0.40179860	     -4.50616907	     -0.00000000	      0.00000000	      0.00000000	      0.00000000	      0.00000000	      0.00000000	     -0.00000000	      0.00000000	     -0.00000000	     -0.00000000	      0.00000000	      0.00000000	      0.00000000	     -0.00000000
      1.26000000	     -1.20711249	      2.53891983	    -89.83455451	      0.24631976	      0.93404781	      0.39054419	     21.74767921	     -7.32989442	     -5.85666381	     66.20609767	      1.15551439	      6.18260741	     -0.00000000	     -0.00000000	      6.48775096	      1.19907475	      5.91349860	      8.95307296	      0.15626060	      5.90991505	      0.00000000	     -0.00000000	     -4.13442799	     -0.34694757	     -4.71839648	     -0.00000000	     -0.00000000	     -0.00000000	      0.00000000	      0.00000000	     -0.00000000	     -0.00000000	     -0.00000000	     -0.00000000	      0.00000000	      0.00000000	      0.00000000	     -0.00000000	     -0.00000000
      1.27000000	     -1.35235663	      2.65003657	    -89.82835784	      0.24619598	      0.93429564	      0.39848733	     23.08521281	     -7.07868493	     -5.82873852	     65.38741184	      1.14122563	      7.17202687	      0.00000000	      0.00000000	      5.59048059	      1.02115776	      6.25755743	      8.11205759	      0.14158211	      6.13355070	      0.00000000	      0.00000000	     -4.02200911	     -0.21776437	     -4.95835852	      0.00000000	      0.00000000	      0.00000000	      0.00000000	      0.00000000	      0.00000000	      0.00000000	      0.00000000	      0.00000000	      0.00000000	      0.00000000	      0.00000000	      0.00000000	      0.00000000
      1.28000000	     -1.41391562	      2.72847727	    -89.82321715	      0.24605468	      0.93443177	      0.40622971	     24.33333962	     -6.89688401	     -5.74371047	     64.29822875	      1.12221579	      7.66170684	      0.00000000	      0.00000000	      4.78640590	      0.92237411	      6.30678197	      7.49251582	      0.13076907	      6.34445068	      0.00000000	      0.00000000	     -4.02153551	     -0.16425299	     -5.19528889	      0.00000000	      0.00000000	      0.00000000	      0.00000000	      0.00000000	      0.00000000	      0.00000000	      0.00000000	      0.00000000	      0.00000000	      0.00000000	      0.00000000	      0.00000000	      0.00000000
      1.29000000	     -1.46643589	      2.71353093	    -89.81753165	      0.24587188	      0.93460314	      0.41411535	     25.36535014	     -6.70553587	     -5.66357781	     62.94846441	      1.09865796	      8.07025067	      0.00000000	      0.00000000	      3.85857195	      0.82811776	      6.33880016	      6.84308952	      0.11943444	      6.55797576	      0.00000000	      0.00000000	     -4.11697324	     -0.11730845	     -5.42885697	      0.00000000	      0.00000000	      0.00000000	      0.00000000	      0.00000000	      0.00000000	      0.00000000	      0.00000000	      0.00000000	      0.00000000	      0.00000000	      0.00000000	      0.00000000	      0.00000000
      1.30000000	     -1.47752260	      2.84304880	    -89.81190311	      0.24562329	      0.93439623	      0.42186068	     26.50866696	     -6.53913027	     -5.55646145	     61.42656843	      1.07209587	      8.37178665	      0.00000000	      0.00000000	      3.13472851	      0.78066700	      6.40311503	      6.27236192	      0.10947337	      6.81369960	      0.00000000	      0.00000000	     -4.07382480	     -0.11899449	     -5.66548069	      0.00000000	      0.00000000	      0.00000000	      0.00000000	      0.00000000	      0.00000000	      0.00000000	      0.00000000	      0.00000000	      0.00000000	      0.00000000	      0.00000000	      0.00000000	      0.00000000
      1.31000000	     -1.51219515	      2.79420664	    -89.80411884	      0.24530776	      0.93439266	      0.42986856	     27.30596234	     -6.33615282	     -5.47969543	     59.61281638	      1.04043992	      8.54465029	      0.00000000	      0.00000000	      2.16405030	      0.69781424	      6.48234309	      5.63300054	      0.09831441	      7.05784990	      0.00000000	      0.00000000	     -4.21688000	     -0.09853875	     -5.89340491	      0.00000000	      0.00000000	      0.00000000	      0.00000000	      0.00000000	      0.00000000	      0.00000000	      0.00000000	      0.00000000	      0.00000000	      0.00000000	      0.00000000	      0.00000000	      0.00000000
      1.32000000	     -1.29920852	      3.06293941	    -89.79517654	      0.24508136	      0.93362893	      0.43745328	     28.49564085	     -6.42088802	     -5.31114898	     57.78905567	      1.00860929	      8.76713585	     -0.00000000	     -0.00000000	      1.75915699	      0.90436540	      6.23931537	      5.35130318	      0.09339786	      7.23491139	      0.00000000	      0.00000000	     -4.04514114	     -0.35845266	     -6.14299849	      0.00000000	     -0.00000000	      0.00000000	      0.00000000	      0.00000000	      0.00000000	     -0.00000000	      0.00000000	     -0.00000000	      0.00000000	      0.00000000	      0.00000000	      0.00000000	     -0.00000000
      1.33000000	     -1.11581288	      3.33250438	    -89.79078082	      0.24465347	      0.93277501	      0.44527504	     29.57377278	     -6.43407131	     -5.12683814	     55.77497894	      0.97345702	      8.92943554	      0.00000000	      0.00000000	      1.26808618	      1.05556827	      6.12879143	      4.93381878	      0.08611138	      7.48861466	      0.00000000	      0.00000000	     -3.81011925	     -0.60393283	     -6.40182732	      0.00000000	      0.00000000	      0.00000000	      0.00000000	      0.00000000	      0.00000000	      0.00000000	      0.00000000	      0.00000000	      0.00000000	      0.00000000	      0.00000000	      0.00000000	      0.00000000
      1.34000000	     -1.43714706	      3.08842724	    -89.77655473	      0.24403202	      0.93289478	      0.45369551	     29.73813944	     -5.85662648	     -5.15124156	     53.14302805	      0.92752081	      8.29644858	      0.00000000	      0.00000000	     -0.12323280	      0.63734252	      6.83017953	      3.98775127	      0.06959939	      7.93485427	      0.00000000	      0.00000000	     -4.18710787	     -0.21072805	     -6.59534440	      0.00000000	      0.00000000	      0.00000000	      0.00000000	      0.00000000	      0.00000000	      0.00000000	      0.00000000	      0.00000000	      0.00000000	      0.00000000	      0.00000000	      0.00000000	      0.00000000
      1.35000000	     -1.09240064	      3.38891980	    -89.75407418	      0.24380230	      0.93166399	      0.46132952	     30.74487715	     -6.13479358	     -5.07409921	     50.90667285	      0.88848905	      8.54447508	     -0.00000000	      0.00000000	     -0.44347297	      0.99405447	      6.54637821	      3.80563452	      0.06642085	      8.06437871	     -0.00000000	      0.00000000	     -4.03124953	     -0.58119446	     -6.83519076	      0.00000000	      0.00000000	     -0.00000000	      0.00000000	      0.00000000	     -0.00000000	      0.00000000	      0.00000000	      0.00000000	      0.00000000	      0.00000000	      0.00000000	     -0.00000000	      0.00000000
      1.36000000	     -1.41250410	      2.93977479	    -89.76029303	      0.24282258	      0.93194561	      0.47012522	     30.41658219	     -5.48131984	     -5.00478067	     47.82455400	      0.83469593	      7.61446810	      0.00000000	      0.00000000	     -2.04428833	      0.53036247	      6.80350592	      2.90139255	      0.05063885	      8.41062415	      0.00000000	     -0.00000000	     -4.56208292	     -0.26311560	     -7.06430313	      0.00000000	      0.00000000	     -0.00000000	      0.00000000	      0.00000000	     -0.00000000	     -0.00000000	     -0.00000000	      0.00000000	     -0.00000000	      0.00000000	      0.00000000	      0.00000000	      0.00000000
      1.37000000	     -1.32937369	      3.08701643	    -89.75046725	      0.24217371	      0.93091045	      0.47816824	     30.92852145	     -5.37432618	     -4.90577009	     45.00605408	      0.78550383	      7.05330547	      0.00000000	      0.00000000	     -2.69889121	      0.56105388	      6.93284363	      2.48503065	      0.04337197	      8.78154564	      0.00000000	      0.00000000	     -4.51568167	     -0.35592758	     -7.27882868	      0.00000000	      0.00000000	      0.00000000	      0.00000000	      0.00000000	      0.00000000	      0.00000000	      0.00000000	      0.00000000	      0.00000000	      0.00000000	      0.00000000	      0.00000000	      0.00000000
      1.38000000	     -1.28228995	      3.09486326	    -89.74183272	      0.24145383	      0.93002008	      0.48640512	     31.15901879	     -5.22619213	     -4.84524224	     42.00287628	      0.73308849	      6.45519546	      0.00000000	      0.00000000	     -3.52414418	      0.54386356	      6.99401410	      2.04912011	      0.03576389	      9.13205798	      0.00000000	      0.00000000	     -4.62885507	     -0.40719074	     -7.48667266	      0.00000000	      0.00000000	      0.00000000	      0.00000000	      0.00000000	      0.00000000	      0.00000000	      0.00000000	      0.00000000	      0.00000000	      0.00000000	      0.00000000	      0.00000000	      0.00000000
      1.39000000	     -1.22504865	      3.22651853	    -89.73276058	      0.24066399	      0.92881893	      0.49468103	     31.45498037	     -5.09080963	     -4.79681688	     38.90582445	      0.67903473	      5.81565514	      0.00000000	      0.00000000	     -4.19583416	      0.53547677	      7.15939865	      1.67031764	      0.02915254	      9.54157219	      0.00000000	      0.00000000	     -4.57701052	     -0.47181352	     -7.69592319	      0.00000000	      0.00000000	      0.00000000	      0.00000000	      0.00000000	      0.00000000	      0.00000000	      0.00000000	      0.00000000	      0.00000000	      0.00000000	      0.00000000	      0.00000000	      0.00000000
